<svg width="144" height="144" viewBox="0 0 144 144" fill="none" xmlns="http://www.w3.org/2000/svg" xmlns:xlink="http://www.w3.org/1999/xlink">
<path d="M0,144L26.182,144L26.182,57.6L0,57.6L0,144ZM144,64.8C144,56.88 138.109,50.4 130.909,50.4L89.607,50.4L95.825,17.496L96.022,15.192C96.022,12.24 94.909,9.504 93.142,7.56L86.204,0L43.135,47.448C40.713,50.04 39.273,53.64 39.273,57.6L39.273,129.6C39.273,137.52 45.164,144 52.364,144L111.273,144C116.705,144 121.353,140.4 123.316,135.216L143.084,84.456C143.673,82.8 144,81.072 144,79.2L144,64.8Z" fill="#ED7B7B"/>
</svg>
